/* XPM */
static char * Convert32_xpm[] = {
"32 32 228 2",
"  	c #11ED09",
". 	c #4DB10B",
"+ 	c #D22910",
"@ 	c #0FB145",
"# 	c #0C2CCD",
"$ 	c #44BA0B",
"% 	c #C8340F",
"& 	c #10BA3C",
"* 	c #0C36C2",
"= 	c #42BC0B",
"- 	c #C4380F",
"; 	c #C6350F",
"> 	c #0C38C1",
", 	c #0C3ABE",
"' 	c #10BC3A",
") 	c #C9330F",
"! 	c #DA2110",
"~ 	c #56A70B",
"{ 	c #0FA84F",
"] 	c #0C24D5",
"^ 	c #0C35C3",
"/ 	c #3DC00B",
"( 	c #CE2E10",
"_ 	c #F10A11",
": 	c #74880C",
"< 	c #0E8A6E",
"[ 	c #0B0DEC",
"} 	c #0C30C8",
"| 	c #10C136",
"1 	c #26D80A",
"2 	c #9B610E",
"3 	c #EA1111",
"4 	c #8E6E0D",
"5 	c #1FDE0A",
"6 	c #11DF18",
"7 	c #0E7088",
"8 	c #0B14E5",
"9 	c #0D6395",
"0 	c #10D81E",
"a 	c #14EA09",
"b 	c #609D0C",
"c 	c #E81410",
"d 	c #EB1011",
"e 	c #69930C",
"f 	c #11EA0C",
"g 	c #0F9563",
"h 	c #0B13E6",
"i 	c #0B16E2",
"j 	c #0F9E59",
"k 	c #2AD30A",
"l 	c #A7550E",
"m 	c #EC0F11",
"n 	c #B3490F",
"o 	c #31CC0A",
"p 	c #10CD2A",
"q 	c #0D4BAD",
"r 	c #0B12E7",
"s 	c #0D57A1",
"t 	c #10D423",
"u 	c #4FAE0B",
"v 	c #D42810",
"w 	c #F00B11",
"x 	c #84780D",
"y 	c #18E609",
"z 	c #11E610",
"A 	c #0E7A7E",
"B 	c #0B0EEB",
"C 	c #0C2ACE",
"D 	c #0FAF48",
"E 	c #98640E",
"F 	c #CD2F10",
"G 	c #4DB00B",
"H 	c #0FB146",
"I 	c #0C31C7",
"J 	c #0D6692",
"K 	c #4BB30B",
"L 	c #CB310F",
"M 	c #E61510",
"N 	c #A9530E",
"O 	c #2ED00A",
"P 	c #10D026",
"Q 	c #0D55A3",
"R 	c #0B18E1",
"S 	c #0C33C5",
"T 	c #0FB343",
"U 	c #6F8E0C",
"V 	c #2DD10A",
"W 	c #10D125",
"X 	c #0F8F68",
"Y 	c #1DE109",
"Z 	c #817C0D",
"` 	c #E91211",
" .	c #E90F14",
"..	c #994E23",
"+.	c #438D37",
"@.	c #2F8D4A",
"#.	c #1450A1",
"$.	c #0B15E4",
"%.	c #0E7D7A",
"&.	c #11E115",
"*.	c #9F5515",
"=.	c #B30E49",
"-.	c #6B0C91",
";.	c #3A0FBC",
">.	c #2910CD",
",.	c #130DE5",
"'.	c #0E10E6",
").	c #10579E",
"!.	c #14DE15",
"~.	c #207E69",
"{.	c #201FC6",
"].	c #190AE1",
"^.	c #2F0ACC",
"/.	c #1D0ADE",
"(.	c #360AC6",
"_.	c #751E74",
":.	c #627D29",
"<.	c #1DDE0C",
"[.	c #0F8E69",
"}.	c #0C18E1",
"|.	c #162AC5",
"1.	c #406860",
"2.	c #476859",
"3.	c #A2293F",
"4.	c #DF1517",
"5.	c #708D0C",
"6.	c #0D52A6",
"7.	c #AC500E",
"8.	c #0B15E3",
"9.	c #0F8D6A",
"0.	c #718C0C",
"a.	c #E91310",
"b.	c #0D6197",
"c.	c #0B17E2",
"d.	c #0D5D9B",
"e.	c #A15B0E",
"f.	c #E71410",
"g.	c #9D5F0E",
"h.	c #11E313",
"i.	c #0E6A8D",
"j.	c #0B07F2",
"k.	c #0C2DCC",
"l.	c #10C92E",
"m.	c #35C80A",
"n.	c #D12A10",
"o.	c #F70411",
"p.	c #94690E",
"q.	c #1BE309",
"r.	c #10D323",
"s.	c #0FAA4D",
"t.	c #0C27D2",
"u.	c #0E8572",
"v.	c #0D49AF",
"w.	c #10C037",
"x.	c #3EBF0B",
"y.	c #B5470F",
"z.	c #79840D",
"A.	c #D72410",
"B.	c #54A90B",
"C.	c #2BD30A",
"D.	c #0E7F78",
"E.	c #0E7C7B",
"F.	c #0F9A5D",
"G.	c #10B83F",
"H.	c #0F9B5C",
"I.	c #0C21D8",
"J.	c #0B09F0",
"K.	c #10B641",
"L.	c #48B50B",
"M.	c #F50611",
"N.	c #DD1F10",
"O.	c #639A0C",
"P.	c #46B70B",
"Q.	c #64990C",
"R.	c #827B0D",
"S.	c #7F7E0D",
"T.	c #0F985F",
"U.	c #0D5C9C",
"V.	c #0FAE49",
"W.	c #0E7781",
"X.	c #0C23D6",
"Y.	c #0B0CED",
"Z.	c #0E797F",
"`.	c #85770D",
" +	c #F20911",
".+	c #DB2010",
"++	c #87750D",
"@+	c #50AD0B",
"#+	c #A25A0E",
"$+	c #66970C",
"%+	c #0E7186",
"&+	c #0B11E8",
"*+	c #0C28D0",
"=+	c #0C20D8",
"-+	c #0D4DAB",
";+	c #0B10E9",
">+	c #0B0AEF",
",+	c #F40711",
"'+	c #EE0D11",
")+	c #B14B0F",
"!+	c #DE1E10",
"~+	c #D62610",
"{+	c #ED0E11",
"]+	c #8D700D",
"^+	c #0E6F89",
"/+	c #0B08F1",
"(+	c #0B0FEA",
"_+	c #0E6E8A",
":+	c #906C0D",
"<+	c #EF0C11",
"[+	c #F60511",
"}+	c #8F6D0D",
"|+	c #0D58A0",
"1+	c #0C32C6",
"2+	c #0C30C9",
"3+	c #CE2D10",
"4+	c #CC300F",
"5+	c #A6560E",
"6+	c #0C3EBA",
"7+	c #0C1EDB",
"8+	c #C03C0F",
"9+	c #E01B10",
"0+	c #0FA552",
"a+	c #59A40C",
"b+	c #10B740",
"c+	c #47B60B",
"d+	c #10C235",
"e+	c #3CC10B",
"            . + + .                         @ # # @             ",
"            $ % % $                         & * * &             ",
"            = - ; $                         & > , '             ",
"            = ) ! ~                         { ] ^ '             ",
"            / ( _ :                         < [ } |             ",
"            1 2 3 4 5                     6 7 8 9 0             ",
"            a b c d e a                 f g h i j f             ",
"              k l m n o                 p q r s t               ",
"              a u v w x y             z A B C D f               ",
"                1 E 3 F G a         f H I 8 J 0                 ",
"                a K L M N O         P Q R S T f                 ",
"                  y U c m 4 V a f W 7 r i X z                   ",
"                    Y Z `  ...+.@.#.r $.%.&.                    ",
"                      k *.=.-.;.>.,.'.).t                       ",
"                      !.~.{.].^./.(._.:.<.                      ",
"                    z [.i }.|.1.2.3.4.c 5.y                     ",
"                  f H } r 6.H z y G 7.m ( G a                   ",
"                  P Q R I H f     a G F M N O                   ",
"                  j h 8.9.z         y 0.a.d b                   ",
"                0 b.c.d.t             k e.f.g.1                 ",
"              h.i.j.k.T f z l.z y m.y a K n.o.p.q.              ",
"f r.{ s.&.    H t.r u.6 T J v.w.x.y.E K 5 z.m A.G     Y B.~ C.a ",
"6 D.i 8.E.t f F.R } G.H.I.J.] K.L.! M.N.O.P.( M Q.a k R.a.c S.5 ",
"f T.c.B h U.V.u.R 9 W.X.Y.r Z.h.q.`.m  +.+++2 M z.@+#+d w f.$+a ",
"  6 %+$.[ &+I *+=+-+;+>+r 7 6     5 4 m ,+'+)+!+~+F {+_ ` ]+5   ",
"    6 ^+;+B =+J./+B Y.(+_+6         5 :+<+ +w [+M.!+w '+}+5     ",
"      W |+8.1+>+(+2+8.s W             V l a.3+<+,+4+a.5+V       ",
"      f T 6+} 7+I.1+6+T f             a K 8+4+N.9+( 8+K a       ",
"        z 0+* r ;+* 0+z                 y a+% '+m % a+y         ",
"          z ^+>+>+^+z                     y }+,+,+}+y           ",
"            b+} } b+                        c+( ( c+            ",
"            z d+d+z                         y e+e+y             "};
